<svg width="22" height="20" viewBox="0 0 22 20" fill="none" xmlns="http://www.w3.org/2000/svg">
<path d="M15 2C14.2044 2 13.4415 2.3163 12.8789 2.87891C12.3163 3.44152 12 4.20435 12 5V15.5371C12.603 15.1889 13.2916 15 14 15H20V2H15ZM2 15H8C8.70844 15 9.39697 15.1889 10 15.5371V5C10 4.20435 9.6837 3.44152 9.12109 2.87891C8.55849 2.3163 7.79565 2 7 2H2V15ZM22 15C22 15.5304 21.7891 16.039 21.4141 16.4141C21.039 16.7891 20.5304 17 20 17H14C13.4696 17 12.961 17.2109 12.5859 17.5859C12.2109 17.961 12 18.4696 12 19C12 19.5523 11.5523 20 11 20C10.4477 20 10 19.5523 10 19C10 18.4696 9.78913 17.961 9.41406 17.5859C9.08578 17.2577 8.65526 17.0551 8.19727 17.0098L8 17H2C1.46957 17 0.961012 16.7891 0.585938 16.4141C0.210864 16.039 0 15.5304 0 15V2C0 1.46957 0.210865 0.96101 0.585938 0.585938C0.96101 0.210865 1.46957 0 2 0H7C8.32608 0 9.59747 0.527162 10.5352 1.46484C10.7036 1.63332 10.8587 1.81256 11 2.00098C11.1413 1.81256 11.2964 1.63332 11.4648 1.46484C12.4025 0.527162 13.6739 0 15 0H20C20.5304 0 21.039 0.210864 21.4141 0.585938C21.7891 0.961012 22 1.46957 22 2V15Z" fill="currentColor"/>
</svg>
