<svg width="22" height="20" viewBox="0 0 22 20" fill="none" xmlns="http://www.w3.org/2000/svg">
<path d="M20 13.7529C17.4429 15.1147 14.6068 15.8837 11.7021 15.9902L11 16.0029C7.85153 16.0029 4.7628 15.2243 2 13.7529V17C2 17.5523 2.44772 18 3 18H19C19.5523 18 20 17.5523 20 17V13.7529ZM11.0098 10C11.5621 10 12.0098 10.4477 12.0098 11C12.0098 11.5523 11.5621 12 11.0098 12H11C10.4477 12 10 11.5523 10 11C10 10.4477 10.4477 10 11 10H11.0098ZM20 7C20 6.44771 19.5523 6 19 6H3C2.44772 6 2 6.44772 2 7V11.4492C4.70289 13.1159 7.81762 14.0029 11 14.0029L11.6289 13.9922C14.5917 13.8835 17.4754 13.0059 20 11.4492V7ZM14 3C14 2.73478 13.8946 2.48051 13.707 2.29297C13.5195 2.10543 13.2652 2 13 2H9C8.73478 2 8.4805 2.10543 8.29297 2.29297C8.10543 2.48051 8 2.73478 8 3V4H14V3ZM16 4H19C20.6569 4 22 5.34315 22 7V17C22 18.6569 20.6569 20 19 20H3C1.34315 20 0 18.6569 0 17V7C0 5.34315 1.34315 4 3 4H6V3C6 2.20435 6.3163 1.44151 6.87891 0.878906C7.44152 0.316297 8.20435 0 9 0H13C13.7956 0 14.5585 0.316297 15.1211 0.878906C15.6837 1.44151 16 2.20435 16 3V4Z" fill="currentColor"/>
</svg>
