<svg width="20" height="17" viewBox="0 0 20 17" fill="none" xmlns="http://www.w3.org/2000/svg">
<path d="M18 8C18 7.44771 17.5523 7 17 7H3C2.44772 7 2 7.44772 2 8V12C2.00024 12.5521 2.44787 13 3 13H17C17.5521 13 17.9998 12.5521 18 12V8ZM5.00977 9C5.56205 9 6.00977 9.44771 6.00977 10C6.00952 10.5521 5.5619 11 5.00977 11H5C4.44787 11 4.00024 10.5521 4 10C4 9.44771 4.44772 9 5 9H5.00977ZM15.0098 9C15.5621 9 16.0098 9.44771 16.0098 10C16.0095 10.5521 15.5619 11 15.0098 11H15C14.4479 11 14.0002 10.5521 14 10C14 9.44771 14.4477 9 15 9H15.0098ZM6.37695 1.99902C6.17324 1.99436 5.97276 2.05273 5.80273 2.16504C5.63284 2.27736 5.50139 2.43881 5.42578 2.62793L4.47754 5H15.5156L14.5732 2.6748C14.5698 2.6664 14.5667 2.65791 14.5635 2.64941C14.4927 2.46008 14.3657 2.2967 14.2002 2.18066C14.0376 2.06671 13.8449 2.00299 13.6465 1.99902V2H6.40039C6.39274 2 6.38461 1.9992 6.37695 1.99902ZM20 12C19.9998 13.3055 19.1643 14.412 18 14.8242V16C17.9998 16.5521 17.5521 17 17 17C16.4479 17 16.0002 16.5521 16 16V15H4V16C3.99976 16.5521 3.55213 17 3 17C2.44787 17 2.00024 16.5521 2 16V14.8242C0.835702 14.412 0.000191277 13.3055 0 12V8C0 7.02216 0.469316 6.15511 1.19336 5.60742L0.292969 4.70703C-0.0975556 4.31651 -0.0975555 3.68252 0.292969 3.29199C0.683426 2.90182 1.31657 2.90182 1.70703 3.29199L2.63379 4.21875L3.56836 1.88477C3.7953 1.3174 4.19037 0.832974 4.7002 0.496094C5.20408 0.163259 5.79693 -0.00834796 6.40039 0.000976562V0H13.6562C14.2623 0.00601821 14.8524 0.195042 15.3486 0.542969C15.8374 0.885714 16.2118 1.36695 16.4258 1.92383L17.3594 4.22461L18.293 3.29199C18.6834 2.90182 19.3166 2.90182 19.707 3.29199C20.0976 3.68252 20.0976 4.31651 19.707 4.70703L18.8057 5.60742C19.5301 6.15508 20 7.02188 20 8V12Z" fill="currentColor"/>
</svg>
