<svg width="22" height="22" viewBox="0 0 22 22" fill="none" xmlns="http://www.w3.org/2000/svg">
<path d="M20 11C20 6.02944 15.9706 2 11 2C6.02944 2 2 6.02944 2 11C2 15.9706 6.02944 20 11 20C15.9706 20 20 15.9706 20 11ZM10 7C10 6.44772 10.4477 6 11 6C11.5523 6 12 6.44772 12 7V12.5859L14.293 10.293C14.6835 9.90244 15.3165 9.90244 15.707 10.293C16.0976 10.6835 16.0976 11.3165 15.707 11.707L11.707 15.707C11.3165 16.0976 10.6835 16.0976 10.293 15.707L6.29297 11.707C5.90244 11.3165 5.90244 10.6835 6.29297 10.293C6.68349 9.90244 7.31651 9.90244 7.70703 10.293L10 12.5859V7ZM22 11C22 17.0751 17.0751 22 11 22C4.92487 22 0 17.0751 0 11C0 4.92487 4.92487 0 11 0C17.0751 0 22 4.92487 22 11Z" fill="currentColor"/>
</svg>
