<svg width="23" height="23" viewBox="0 0 23 23" fill="none" xmlns="http://www.w3.org/2000/svg">
<path d="M1.06055 11.7178C1.06055 11.3238 1.13734 10.9333 1.28809 10.5693C1.43885 10.2054 1.65992 9.87429 1.93848 9.5957C2.21706 9.31712 2.54813 9.0961 2.91211 8.94531C3.27613 8.79453 3.66653 8.7168 4.06055 8.7168C4.45456 8.7168 4.84496 8.79453 5.20898 8.94531C5.57297 9.0961 5.90403 9.31712 6.18262 9.5957L8.65625 12.0703L12.0703 8.65625L9.5957 6.18262C9.31712 5.90403 9.0961 5.57297 8.94531 5.20898C8.79453 4.84496 8.7168 4.45456 8.7168 4.06055C8.7168 3.66653 8.79453 3.27613 8.94531 2.91211C9.0961 2.54813 9.31712 2.21706 9.5957 1.93848C9.87429 1.65992 10.2054 1.43885 10.5693 1.28809C10.9333 1.13734 11.3238 1.06055 11.7178 1.06055C12.1117 1.06058 12.5023 1.13733 12.8662 1.28809C13.1313 1.39792 13.3781 1.54614 13.6006 1.72559C13.7469 1.41418 13.9444 1.12583 14.1924 0.87793C14.7551 0.315474 15.5188 -0.000140587 16.3145 4.69786e-08C17.11 0.000239062 17.8731 0.316276 18.4355 0.878906L19.1416 1.58496L19.8643 0.864258C20.2548 0.473734 20.8878 0.473734 21.2783 0.864258C21.6686 1.2548 21.6688 1.88788 21.2783 2.27832L20.5557 3L21.2627 3.70703C21.5412 3.98546 21.7623 4.3159 21.9131 4.67969C22.0639 5.04364 22.1425 5.43415 22.1426 5.82812C22.1426 6.22206 22.0648 6.61258 21.9141 6.97656C21.7634 7.3404 21.5421 7.67069 21.2637 7.94922C21.0177 8.19524 20.7293 8.3925 20.415 8.54004C20.8441 9.07126 21.082 9.73563 21.082 10.4248C21.082 11.2204 20.7657 11.9833 20.2031 12.5459C19.6406 13.1085 18.8776 13.4247 18.082 13.4248C17.2863 13.4248 16.5226 13.1086 15.96 12.5459L13.4844 10.0703L10.0703 13.4844L12.5459 15.96C13.1086 16.5226 13.4248 17.2863 13.4248 18.082C13.4247 18.8776 13.1085 19.6406 12.5459 20.2031C11.9833 20.7657 11.2204 21.082 10.4248 21.082C9.73563 21.082 9.07126 20.8441 8.54004 20.415C8.3925 20.7293 8.19524 21.0177 7.94922 21.2637C7.67069 21.5421 7.3404 21.7634 6.97656 21.9141C6.61258 22.0648 6.22206 22.1426 5.82812 22.1426C5.03246 22.1424 4.26955 21.8254 3.70703 21.2627L3 20.5557L2.27832 21.2783C1.88788 21.6688 1.2548 21.6686 0.864258 21.2783C0.473734 20.8878 0.473734 20.2548 0.864258 19.8643L1.58496 19.1416L0.878906 18.4355C0.316276 17.8731 0.000239062 17.11 4.69786e-08 16.3145C-0.000140587 15.5188 0.315474 14.7551 0.87793 14.1924C1.12583 13.9444 1.41418 13.7469 1.72559 13.6006C1.54614 13.3781 1.39792 13.1313 1.28809 12.8662C1.13733 12.5023 1.06058 12.1117 1.06055 11.7178ZM3.06055 11.7178C3.06058 11.8491 3.08647 11.9793 3.13672 12.1006C3.18699 12.2218 3.2607 12.332 3.35352 12.4248H3.35254L5.12109 14.1914C5.51167 14.5818 5.51151 15.2158 5.12109 15.6064C4.73065 15.9967 4.09754 15.9967 3.70703 15.6064C3.51948 15.419 3.26519 15.3135 3 15.3135C2.73483 15.3135 2.48047 15.419 2.29297 15.6064C2.10552 15.794 2.00002 16.0483 2 16.3135C2.00005 16.5786 2.10551 16.833 2.29297 17.0205L5.12109 19.8486C5.30855 20.0362 5.56298 20.1425 5.82812 20.1426C5.95936 20.1426 6.08967 20.1166 6.21094 20.0664C6.33213 20.0162 6.44235 19.9423 6.53516 19.8496C6.62789 19.7569 6.70168 19.6465 6.75195 19.5254C6.80219 19.4042 6.82806 19.2738 6.82812 19.1426C6.82815 19.0114 6.80307 18.881 6.75293 18.7598C6.70269 18.6384 6.62898 18.5274 6.53613 18.4346C6.14573 18.044 6.14553 17.4109 6.53613 17.0205C6.90223 16.6547 7.48138 16.6321 7.87402 16.9521L7.9502 17.0215L9.71777 18.7891H9.7168C9.90441 18.9767 10.1595 19.082 10.4248 19.082C10.69 19.082 10.9443 18.9765 11.1318 18.7891C11.3193 18.6016 11.4247 18.3472 11.4248 18.082C11.4248 17.8167 11.3194 17.5616 11.1318 17.374L4.76758 11.0098C4.67476 10.917 4.56457 10.8432 4.44336 10.793C4.32203 10.7427 4.19187 10.7168 4.06055 10.7168C3.92922 10.7168 3.79907 10.7427 3.67773 10.793C3.55652 10.8432 3.44633 10.917 3.35352 11.0098C3.26062 11.1027 3.18699 11.2136 3.13672 11.335C3.08646 11.4563 3.06055 11.5864 3.06055 11.7178ZM10.7168 4.06055C10.7168 4.19187 10.7427 4.32203 10.793 4.44336C10.8432 4.56457 10.917 4.67476 11.0098 4.76758L17.374 11.1318C17.5616 11.3194 17.8167 11.4248 18.082 11.4248C18.3472 11.4247 18.6016 11.3193 18.7891 11.1318C18.9765 10.9443 19.082 10.69 19.082 10.4248C19.082 10.1595 18.9767 9.90441 18.7891 9.7168L17.0215 7.9502C16.631 7.5598 16.6302 6.92674 17.0205 6.53613C17.3865 6.16992 17.9665 6.14651 18.3594 6.4668L18.4346 6.53613L18.5088 6.60254C18.6867 6.74812 18.9107 6.82817 19.1426 6.82812C19.2738 6.82806 19.4042 6.80219 19.5254 6.75195C19.6465 6.70168 19.7569 6.62789 19.8496 6.53516C19.9423 6.44235 20.0162 6.33213 20.0664 6.21094C20.1166 6.08967 20.1426 5.95936 20.1426 5.82812C20.1425 5.69688 20.1157 5.56656 20.0654 5.44531C20.0152 5.32418 19.9414 5.21381 19.8486 5.12109L17.0205 2.29297C16.833 2.10551 16.5786 2.00005 16.3135 2C16.0483 2.00002 15.794 2.10552 15.6064 2.29297C15.419 2.48047 15.3135 2.73483 15.3135 3C15.3135 3.26519 15.419 3.51948 15.6064 3.70703C15.9967 4.09754 15.9967 4.73065 15.6064 5.12109C15.2158 5.51151 14.5818 5.51167 14.1914 5.12109L12.4248 3.35254C12.3321 3.2599 12.2217 3.18692 12.1006 3.13672C11.9793 3.08647 11.8491 3.06058 11.7178 3.06055C11.5864 3.06055 11.4563 3.08646 11.335 3.13672C11.2136 3.18699 11.1027 3.26062 11.0098 3.35352C10.917 3.44633 10.8432 3.55652 10.793 3.67773C10.7427 3.79907 10.7168 3.92922 10.7168 4.06055Z" fill="currentColor"/>
</svg>
