<svg width="21" height="21" viewBox="0 0 21 21" fill="none" xmlns="http://www.w3.org/2000/svg">
<path d="M0 17.9961V3.99609C5.99779e-05 3.20053 0.31635 2.43756 0.878906 1.875C1.4415 1.31246 2.2044 0.996094 3 0.996094H10C10.5522 0.996094 10.9999 1.44391 11 1.99609C11 2.54838 10.5523 2.99609 10 2.99609H3C2.73484 2.99609 2.48049 3.1016 2.29297 3.28906C2.10549 3.47655 2.00006 3.73096 2 3.99609V17.9961C2 18.2613 2.1055 18.5156 2.29297 18.7031C2.48051 18.8907 2.73478 18.9961 3 18.9961H17C17.2652 18.9961 17.5195 18.8907 17.707 18.7031C17.8945 18.5156 18 18.2613 18 17.9961V10.9961C18.0001 10.4439 18.4478 9.99609 19 9.99609C19.5522 9.99609 19.9999 10.4439 20 10.9961V17.9961C20 18.7917 19.6836 19.5546 19.1211 20.1172C18.5585 20.6798 17.7957 20.9961 17 20.9961H3C2.20435 20.9961 1.44152 20.6798 0.878906 20.1172C0.316368 19.5546 0 18.7917 0 17.9961ZM18.9961 3.12109C18.996 2.82378 18.8782 2.53836 18.668 2.32812C18.4577 2.11791 18.1723 2 17.875 2C17.5777 2 17.2923 2.11791 17.082 2.32812L8.06934 11.3428H8.06836C7.94973 11.4612 7.86272 11.6077 7.81543 11.7686L7.23145 13.7637L9.22852 13.1807L9.34668 13.1377C9.42327 13.1044 9.49555 13.0619 9.56152 13.0107L9.65527 12.9277L18.668 3.91406C18.8782 3.70378 18.9961 3.41843 18.9961 3.12109ZM20.9961 3.12109C20.9961 3.94887 20.6673 4.74277 20.082 5.32812L11.0693 14.3428H11.0684C10.7122 14.6985 10.2723 14.9585 9.78906 15.0996L9.79004 15.1006L6.91699 15.9404H6.91602C6.65794 16.0157 6.38444 16.0198 6.12402 15.9531C5.86354 15.8864 5.62569 15.7507 5.43555 15.5605C5.24557 15.3705 5.10973 15.1333 5.04297 14.873C4.97623 14.6126 4.98037 14.3382 5.05566 14.0801H5.05664L5.89648 11.207V11.2061C6.02057 10.7834 6.23577 10.3934 6.52637 10.0645L6.65527 9.92773L15.668 0.914062C16.2533 0.328772 17.0472 0 17.875 0C18.7028 0 19.4967 0.328772 20.082 0.914062C20.6673 1.49937 20.996 2.29335 20.9961 3.12109Z" fill="currentColor"/>
</svg>
