<svg width="22" height="12" viewBox="0 0 22 12" fill="none" xmlns="http://www.w3.org/2000/svg">
<path d="M0.657522 0.0608428C1.17633 -0.128454 1.75043 0.138715 1.93975 0.657522C2.61776 2.51552 3.85042 4.12037 5.471 5.2542C7.09173 6.38805 9.02232 6.99639 11.0003 6.99639C12.9783 6.99639 14.9089 6.38805 16.5296 5.2542C18.1502 4.12037 19.3828 2.51552 20.0608 0.657522C20.2502 0.138715 20.8243 -0.128454 21.3431 0.0608428C21.8619 0.250162 22.129 0.824259 21.9397 1.34307C21.2704 3.17739 20.1524 4.80647 18.6976 6.08819L19.7649 7.35576C20.1205 7.7781 20.0669 8.40917 19.6448 8.76494C19.2225 9.12053 18.5914 9.06691 18.2356 8.64483L17.0843 7.27666C16.2593 7.78233 15.3792 8.18349 14.4622 8.46905L14.9769 10.7835C15.0965 11.3226 14.7562 11.8571 14.2171 11.9769C13.678 12.0965 13.1435 11.7562 13.0237 11.2171L12.5081 8.8958C12.01 8.96086 11.5066 8.99639 11.0003 8.99639C10.4937 8.99639 9.98992 8.96094 9.49151 8.8958L8.97686 11.2171C8.8571 11.7562 8.32259 12.0965 7.7835 11.9769C7.24441 11.8571 6.90405 11.3226 7.02373 10.7835L7.53741 8.46905C6.62042 8.18343 5.74021 7.78237 4.91534 7.27666L3.76494 8.64483C3.40917 9.06691 2.7781 9.12053 2.35576 8.76494C1.93368 8.40917 1.88006 7.7781 2.23565 7.35576L3.30205 6.08819C1.84746 4.80654 0.730124 3.17716 0.0608428 1.34307C-0.128454 0.824259 0.138715 0.250162 0.657522 0.0608428Z" fill="currentColor"/>
</svg>
