<svg width="20" height="20" viewBox="0 0 20 20" fill="none" xmlns="http://www.w3.org/2000/svg">
<path d="M16 11H11V18H15C15.2651 18 15.5195 17.8954 15.707 17.708C15.8946 17.5205 16 17.2652 16 17V11ZM4 17C4 17.2652 4.10543 17.5205 4.29297 17.708C4.48048 17.8954 4.73491 18 5 18H9V11H4V17ZM11 7V9H18V7H11ZM2 9H9V7H2V9ZM16 3.5C15.9999 3.10233 15.8417 2.72065 15.5605 2.43945C15.2793 2.15829 14.8977 2 14.5 2C14.4942 2 14.4882 2.0001 14.4824 2C13.8758 1.98949 13.1903 2.27931 12.5303 3.0127C12.0787 3.51456 11.679 4.18948 11.3623 5H14.5C14.8977 5 15.2793 4.84266 15.5605 4.56152C15.8419 4.28022 16 3.89782 16 3.5ZM4 3.5C4 3.89782 4.15815 4.28022 4.43945 4.56152C4.72073 4.84266 5.1023 5 5.5 5H8.6377C8.32102 4.18948 7.92135 3.51456 7.46973 3.0127C6.80968 2.27931 6.1242 1.98949 5.51758 2C5.51177 2.0001 5.50581 2 5.5 2C5.10228 2 4.72074 2.15829 4.43945 2.43945C4.15825 2.72065 4.00012 3.10233 4 3.5ZM18 3.5C18 4.02373 17.8823 4.53565 17.6621 5H18C19.1044 5 19.9998 5.89563 20 7V9C20 10.1046 19.1046 11 18 11V17C18 17.7957 17.6837 18.5595 17.1211 19.1221C16.5585 19.6845 15.7955 20 15 20H5C4.20448 20 3.44149 19.6845 2.87891 19.1221C2.3163 18.5595 2 17.7957 2 17V11C0.89543 11 0 10.1046 0 9V7C0.000236276 5.89563 0.895576 5 2 5H2.33789C2.11769 4.53565 2 4.02373 2 3.5C2.00012 2.5719 2.36912 1.68166 3.02539 1.02539C3.68175 0.36915 4.57185 0 5.5 0V0.00195312C6.81589 -0.0151462 8.01488 0.629058 8.95605 1.6748C9.34998 2.11252 9.69852 2.61948 10 3.17871C10.3015 2.61948 10.65 2.11252 11.0439 1.6748C11.9851 0.629058 13.1841 -0.0151462 14.5 0.00195312V0C15.4282 0 16.3183 0.36915 16.9746 1.02539C17.6309 1.68166 17.9999 2.5719 18 3.5Z" fill="currentColor"/>
</svg>
