<svg width="21" height="21" viewBox="0 0 21 21" fill="none" xmlns="http://www.w3.org/2000/svg">
<path d="M2.99895 10.1693V17.1693C2.99906 17.4343 3.10448 17.6889 3.29192 17.8763C3.47942 18.0636 3.73393 18.1693 3.99895 18.1693H15.999C16.264 18.1692 16.5185 18.0637 16.706 17.8763C16.8934 17.6889 16.9988 17.4343 16.999 17.1693V10.1693H2.99895ZM11.999 12.1693C12.5511 12.1695 12.999 12.6171 12.999 13.1693C12.9987 13.7212 12.5509 14.1691 11.999 14.1693H7.99895C7.4468 14.1693 6.99918 13.7214 6.99895 13.1693C6.99895 12.617 7.44667 12.1693 7.99895 12.1693H11.999ZM14.5888 2.00131L13.9003 3.58041C13.9018 3.58278 13.9037 3.58488 13.9052 3.58725C14.2444 4.1297 14.4017 4.76666 14.3534 5.40463C14.3054 6.03859 14.0558 6.63972 13.6435 7.12338L13.6445 7.12436L13.0927 7.78061L13.3525 8.16928H16.1532L18.1581 3.39682V3.39584L14.5888 2.00033V2.00131ZM6.0468 2.19076C5.85258 2.2309 5.67502 2.32856 5.53606 2.47006C5.40517 2.60335 5.31602 2.77063 5.27532 2.95248L5.13665 4.7933C5.10428 5.22424 4.79838 5.58618 4.37883 5.68979L2.69524 6.10483C2.50372 6.16609 2.33461 6.28397 2.21086 6.44272C2.0847 6.6047 2.01128 6.8021 2.0009 7.00717C1.99062 7.21219 2.04404 7.41538 2.15325 7.5892C2.26256 7.76315 2.42287 7.89919 2.61223 7.97885H2.61126L3.0761 8.16928H10.9579C10.7756 7.81476 10.818 7.38166 11.079 7.07065L12.1122 5.8392L12.12 5.83041C12.2591 5.66868 12.3432 5.46593 12.3593 5.25326C12.3753 5.04075 12.3229 4.82849 12.2099 4.64779C12.0968 4.46699 11.9286 4.32698 11.7304 4.24838C11.5322 4.1698 11.3136 4.15708 11.1073 4.21127C11.0883 4.21626 11.069 4.22011 11.0497 4.22397L9.22942 4.58822C8.84598 4.66483 8.45295 4.51131 8.22356 4.19467L7.09856 2.63998C7.09199 2.63091 7.08529 2.62193 7.07903 2.61264C6.96824 2.44801 6.8106 2.31945 6.62688 2.24447C6.44323 2.16959 6.24104 2.15068 6.0468 2.19076ZM18.999 17.1693C18.9988 17.9648 18.6826 18.7279 18.12 19.2904C17.5575 19.8529 16.7945 20.1692 15.999 20.1693H3.99895C3.2033 20.1693 2.43949 19.853 1.87688 19.2904C1.31442 18.7279 0.999061 17.9647 0.99895 17.1693V10.1751C0.99813 9.91444 1.04808 9.65588 1.14641 9.4144V9.41342C0.877602 9.20195 0.643987 8.94658 0.459888 8.65365C0.131897 8.13174 -0.0273091 7.52124 0.00383321 6.90561C0.0349896 6.29016 0.254917 5.69928 0.633716 5.21322C1.0127 4.72707 1.53257 4.36923 2.122 4.18881L2.17473 4.17416L3.19622 3.92123L3.28606 2.7269C3.28882 2.69021 3.29393 2.65369 3.30071 2.61752C3.41043 2.03243 3.6922 1.49343 4.1093 1.06869C4.5264 0.644015 5.06051 0.353048 5.64348 0.232756C6.22636 0.112556 6.83171 0.168051 7.38274 0.392912C7.9231 0.613438 8.38651 0.98719 8.7177 1.46713L9.46672 2.50033L10.6572 2.26303C11.1903 2.13414 11.7474 2.15348 12.2685 2.31869L12.7548 1.20248C12.9611 0.728356 13.3428 0.35232 13.8202 0.153654C14.2384 -0.0203194 14.7016 -0.0468394 15.1337 0.075529L15.3163 0.137052L15.3173 0.138029L18.8876 1.53451H18.8886C19.1367 1.63181 19.3627 1.77827 19.5536 1.9642C19.7446 2.15025 19.8971 2.37289 20.0009 2.6185C20.1046 2.86404 20.1578 3.12833 20.1581 3.39487C20.1584 3.66133 20.106 3.92552 20.0029 4.17123L18.164 8.54623C18.2515 8.60906 18.3359 8.67711 18.413 8.75424C18.7881 9.12932 18.999 9.63885 18.999 10.1693V17.1693Z" fill="currentColor"/>
</svg>
