<svg width="20" height="21" viewBox="0 0 20 21" fill="none" xmlns="http://www.w3.org/2000/svg">
<path d="M8 12V19H12V12H8ZM20 18C20 18.7957 19.6837 19.5595 19.1211 20.1221C18.5585 20.6845 17.7955 21 17 21H3C2.20447 21 1.44149 20.6845 0.878906 20.1221C0.316297 19.5595 0 18.7957 0 18V9C2.72589e-08 8.5639 0.0947848 8.13291 0.27832 7.7373C0.461975 7.3415 0.73024 6.99066 1.06348 6.70898L8.05859 0.712891L8.06348 0.708984C8.60496 0.251347 9.29104 0 10 0C10.6202 0 11.2229 0.192338 11.7266 0.546875L11.9365 0.708984L11.9414 0.712891L18.9365 6.70898L19.0586 6.81738C19.3356 7.07869 19.561 7.39094 19.7217 7.7373C19.9052 8.13291 20 8.5639 20 9V18ZM14 19H17C17.2651 19 17.5195 18.8954 17.707 18.708C17.8946 18.5205 18 18.2652 18 18V9C18 8.85463 17.9684 8.71097 17.9072 8.5791C17.846 8.44717 17.7566 8.33022 17.6455 8.23633L17.6406 8.23145L10.6455 2.23535V2.23633C10.465 2.08378 10.2363 2 10 2C9.76368 2 9.53498 2.08378 9.35449 2.23633L9.35352 2.23535L2.35938 8.23145L2.35449 8.23633C2.24341 8.33022 2.15399 8.44717 2.09277 8.5791C2.03159 8.71097 2 8.85463 2 9V18C2 18.2652 2.10543 18.5205 2.29297 18.708C2.48048 18.8954 2.7349 19 3 19H6V12C6.00013 11.4697 6.21098 10.9609 6.58594 10.5859C6.96099 10.211 7.46968 10 8 10H12C12.5303 10 13.039 10.211 13.4141 10.5859C13.789 10.9609 13.9999 11.4697 14 12V19Z" fill="currentColor"/>
</svg>
