<svg width="19" height="14" viewBox="0 0 19 14" fill="none" xmlns="http://www.w3.org/2000/svg">
<path d="M7.5 4.58333C7.5 2.96024 6.20643 1.66667 4.58333 1.66667C2.96024 1.66667 1.66667 2.96024 1.66667 4.58333V10.8333C1.66667 11.0543 1.75453 11.2662 1.91081 11.4225C2.06709 11.5788 2.27899 11.6667 2.5 11.6667H6.66667C6.88768 11.6667 7.09958 11.5788 7.25586 11.4225C7.41214 11.2662 7.5 11.0543 7.5 10.8333V4.58333ZM13.3333 5.83333V5H11.6667C11.2064 5 10.8333 4.6269 10.8333 4.16667C10.8333 3.70643 11.2064 3.33333 11.6667 3.33333H14.1667C14.6269 3.33333 15 3.70643 15 4.16667V5.83333C15 6.29357 14.6269 6.66667 14.1667 6.66667C13.7064 6.66667 13.3333 6.29357 13.3333 5.83333ZM5 4.16667C5.46024 4.16667 5.83333 4.53976 5.83333 5C5.83333 5.46024 5.46024 5.83333 5 5.83333H4.16667C3.70643 5.83333 3.33333 5.46024 3.33333 5C3.33333 4.53976 3.70643 4.16667 4.16667 4.16667H5ZM9.16667 10.8333C9.16667 11.1203 9.11419 11.4012 9.02018 11.6667H15.8333C16.0543 11.6667 16.2662 11.5788 16.4225 11.4225C16.5788 11.2662 16.6667 11.0543 16.6667 10.8333V4.16667C16.6667 2.79357 15.5398 1.66667 14.1667 1.66667H8.12744C8.7777 2.45742 9.16667 3.47238 9.16667 4.58333V10.8333ZM18.3333 10.8333C18.3333 11.4964 18.0698 12.1321 17.6009 12.6009C17.1321 13.0698 16.4964 13.3333 15.8333 13.3333H2.5C1.83696 13.3333 1.20126 13.0698 0.732422 12.6009C0.263581 12.1321 0 11.4964 0 10.8333V4.58333C0 2.03976 2.03976 0 4.58333 0H14.1667C16.4602 0 18.3333 1.8731 18.3333 4.16667V10.8333Z" fill="currentColor"/>
</svg>
