<svg width="20" height="22" viewBox="0 0 20 22" fill="none" xmlns="http://www.w3.org/2000/svg">
<path d="M18 12C18 11.4477 17.5523 11 17 11H3C2.44772 11 2 11.4477 2 12V19C2 19.5523 2.44772 20 3 20H17C17.5523 20 18 19.5523 18 19V12ZM14 6C14 4.93913 13.5783 3.92202 12.8281 3.17188C12.078 2.42173 11.0609 2 10 2C8.93913 2 7.92202 2.42173 7.17188 3.17188C6.42173 3.92202 6 4.93913 6 6V9H14V6ZM16 9H17C18.6569 9 20 10.3431 20 12V19C20 20.6569 18.6569 22 17 22H3C1.34315 22 0 20.6569 0 19V12C0 10.3431 1.34315 9 3 9H4V6C4 4.4087 4.63259 2.88303 5.75781 1.75781C6.88303 0.632594 8.4087 0 10 0C11.5913 0 13.117 0.632594 14.2422 1.75781C15.3674 2.88303 16 4.4087 16 6V9Z" fill="currentColor"/>
</svg>
