<svg width="20" height="20" viewBox="0 0 20 20" fill="none" xmlns="http://www.w3.org/2000/svg">
<path d="M18 17V3C18 2.73478 17.8946 2.48051 17.707 2.29297C17.5195 2.10543 17.2652 2 17 2H13C12.4477 2 12 1.55228 12 1C12 0.447715 12.4477 0 13 0H17C17.7957 0 18.5585 0.316297 19.1211 0.878906C19.6837 1.44151 20 2.20435 20 3V17C20 17.7957 19.6837 18.5585 19.1211 19.1211C18.5585 19.6837 17.7957 20 17 20H13C12.4477 20 12 19.5523 12 19C12 18.4477 12.4477 18 13 18H17C17.2652 18 17.5195 17.8946 17.707 17.707C17.8946 17.5195 18 17.2652 18 17ZM7.29297 4.29297C7.68349 3.90244 8.31651 3.90244 8.70703 4.29297L13.707 9.29297C14.0976 9.68349 14.0976 10.3165 13.707 10.707L8.70703 15.707C8.31651 16.0976 7.68349 16.0976 7.29297 15.707C6.90244 15.3165 6.90244 14.6835 7.29297 14.293L10.5859 11H1C0.447715 11 0 10.5523 0 10C0 9.44771 0.447715 9 1 9H10.5859L7.29297 5.70703C6.90244 5.31651 6.90244 4.68349 7.29297 4.29297Z" fill="currentColor"/>
</svg>
