<svg width="22" height="19" viewBox="0 0 22 19" fill="none" xmlns="http://www.w3.org/2000/svg">
<path d="M19 9C18.4477 9 18 8.55229 18 8C18 7.37902 17.8558 6.76636 17.5781 6.21094C17.3004 5.65557 16.8971 5.17238 16.4004 4.7998C16.1486 4.61095 16 4.31476 16 4V2.17188C15.8836 2.21304 15.7692 2.26089 15.6582 2.31641C15.2416 2.52469 14.8791 2.82761 14.5996 3.2002L14.2998 3.59961C14.111 3.85142 13.8148 4 13.5 4H10C8.67392 4 7.40253 4.52716 6.46484 5.46484C5.52716 6.40253 5 7.67392 5 9V10C5 10.621 5.14416 11.2336 5.42188 11.7891C5.69956 12.3444 6.1029 12.8276 6.59961 13.2002C6.85142 13.389 7 13.6852 7 14V17H9V15C9 14.4477 9.44771 14 10 14H13C13.5523 14 14 14.4477 14 15V17H16V14C16 13.5694 16.2761 13.1868 16.6846 13.0508C17.0028 12.9447 17.2921 12.7665 17.5293 12.5293C17.7665 12.2921 17.9447 12.0028 18.0508 11.6846L18.1133 11.5371C18.2835 11.2108 18.6233 11 19 11H20V9H19ZM15.0098 7C15.5621 7 16.0098 7.44772 16.0098 8C16.0098 8.55229 15.5621 9 15.0098 9H15C14.4477 9 14 8.55229 14 8C14 7.44772 14.4477 7 15 7H15.0098ZM22 11C22 11.5304 21.7891 12.039 21.4141 12.4141C21.039 12.7891 20.5304 13 20 13H19.6494C19.4603 13.3452 19.2234 13.6633 18.9434 13.9434C18.6634 14.2233 18.345 14.4594 18 14.6484V17C18 17.5304 17.7891 18.039 17.4141 18.4141C17.039 18.7891 16.5304 19 16 19H14C13.4696 19 12.961 18.7891 12.5859 18.4141C12.2109 18.039 12 17.5304 12 17V16H11V17C11 17.5304 10.7891 18.039 10.4141 18.4141C10.039 18.7891 9.53043 19 9 19H7C6.46957 19 5.96101 18.7891 5.58594 18.4141C5.21087 18.039 5 17.5304 5 17V14.4688C4.43772 13.9655 3.97271 13.3613 3.63379 12.6836C3.21722 11.8505 3 10.9315 3 10C2.20435 10 1.44151 9.6837 0.878906 9.12109C0.316297 8.55849 0 7.79565 0 7V6C0 5.44772 0.447715 5 1 5C1.55228 5 2 5.44772 2 6V7L2.00488 7.09863C2.02757 7.32763 2.12883 7.54289 2.29297 7.70703C2.48051 7.89457 2.73478 8 3 8H3.07324C3.28786 6.51329 3.97512 5.12449 5.0498 4.0498C6.36256 2.73705 8.14348 2 10 2H13C13.4656 1.37914 14.0696 0.875453 14.7637 0.52832C15.4579 0.181182 16.2238 0 17 0C17.5523 0 18 0.447715 18 1V3.53027C18.5625 4.03366 19.0272 4.6385 19.3662 5.31641C19.6324 5.84883 19.8164 6.41668 19.915 7H20C20.5304 7 21.039 7.21087 21.4141 7.58594C21.7891 7.96101 22 8.46957 22 9V11Z" fill="currentColor"/>
</svg>
