<svg width="18" height="22" viewBox="0 0 18 22" fill="none" xmlns="http://www.w3.org/2000/svg">
<path d="M13.667 19C14.0509 19 14.4278 19.0961 14.7637 19.2783L14.9053 19.3623L14.9082 19.3633L15.832 19.958C15.8803 19.9884 15.9371 20.0051 15.9941 20.0049H16V2.00488H15.9941C15.9371 2.00464 15.8813 2.02039 15.833 2.05078L14.9082 2.64551L14.9053 2.64746C14.5355 2.88369 14.1058 3.00879 13.667 3.00879C13.2282 3.00879 12.7985 2.88369 12.4287 2.64746L12.4268 2.64551L11.4941 2.04688C11.446 2.01623 11.3901 2 11.333 2C11.2759 2 11.22 2.01623 11.1719 2.04688L10.2412 2.64551L10.2383 2.64746C9.91474 2.85415 9.54529 2.97567 9.16406 3.00293L9 3.00879C8.5612 3.00879 8.1315 2.88369 7.76172 2.64746L7.75879 2.64551L6.82812 2.04688C6.77999 2.01623 6.72406 2 6.66699 2C6.60992 2 6.554 2.01623 6.50586 2.04688L5.57324 2.64551L5.57129 2.64746C5.20151 2.88369 4.77181 3.00879 4.33301 3.00879C3.89421 3.00879 3.4645 2.88369 3.09473 2.64746L3.0918 2.64551L2.16699 2.05078L2.08984 2.01562C2.06272 2.00786 2.03436 2.00476 2.00586 2.00488H2V20.0049H2.00586C2.06287 20.0051 2.11874 19.9884 2.16699 19.958L3.0918 19.3633L3.09473 19.3623C3.46456 19.126 3.89411 19 4.33301 19C4.7169 19 5.09377 19.0961 5.42969 19.2783L5.57129 19.3623L5.57324 19.3633L6.50586 19.9619L6.58301 19.9971C6.61016 20.005 6.63842 20.0088 6.66699 20.0088C6.69556 20.0088 6.72383 20.005 6.75098 19.9971L6.82812 19.9619L7.75879 19.3633L7.76172 19.3623C8.13155 19.126 8.5611 19 9 19C9.38389 19 9.76076 19.0961 10.0967 19.2783L10.2383 19.3623L10.2412 19.3633L11.1709 19.9619H11.1719C11.22 19.9926 11.2759 20.0088 11.333 20.0088C11.3901 20.0088 11.446 19.9926 11.4941 19.9619L12.4268 19.3633L12.4287 19.3623C12.7985 19.126 13.2281 19 13.667 19ZM10 14.0049C10.5523 14.0049 11 14.4526 11 15.0049C10.9998 15.557 10.5522 16.0049 10 16.0049H5C4.44782 16.0049 4.00018 15.557 4 15.0049C4 14.4526 4.44772 14.0049 5 14.0049H10ZM13 10.0049C13.5523 10.0049 14 10.4526 14 11.0049C13.9998 11.557 13.5522 12.0049 13 12.0049H5C4.44782 12.0049 4.00018 11.557 4 11.0049C4 10.4526 4.44772 10.0049 5 10.0049H13ZM11 6.00488C11.5523 6.00488 12 6.4526 12 7.00488C11.9998 7.55702 11.5522 8.00488 11 8.00488H5C4.44782 8.00488 4.00018 7.55702 4 7.00488C4 6.4526 4.44772 6.00488 5 6.00488H11ZM18 20.0049C17.9999 20.5352 17.7891 21.0439 17.4141 21.4189C17.0402 21.7928 16.5335 22.0026 16.0049 22.0039H16.002L16 22.0049V22.0039C15.5638 22.0053 15.1357 21.8829 14.7666 21.6504L14.7588 21.6455L13.8281 21.0469C13.78 21.0162 13.7241 21 13.667 21C13.6099 21 13.554 21.0162 13.5059 21.0469L12.5732 21.6455L12.5713 21.6475C12.2015 21.8837 11.7718 22.0088 11.333 22.0088C10.8942 22.0088 10.4645 21.8837 10.0947 21.6475L10.0918 21.6455L9.16113 21.0469C9.11299 21.0162 9.05707 21 9 21C8.94293 21 8.88701 21.0162 8.83887 21.0469L7.9082 21.6455L7.90527 21.6475C7.5355 21.8837 7.10579 22.0088 6.66699 22.0088C6.22819 22.0088 5.79849 21.8837 5.42871 21.6475L5.42676 21.6455L4.49414 21.0469C4.446 21.0162 4.39008 21 4.33301 21C4.27594 21 4.22002 21.0162 4.17188 21.0469L3.24121 21.6455L3.2334 21.6504C2.86426 21.8829 2.43619 22.0053 2 22.0039H1.99707L1.99414 22.0049V22.0039C1.4659 22.0024 0.959614 21.7925 0.585938 21.4189C0.210942 21.0439 8.68628e-05 20.5352 0 20.0049V2.00488C0 1.47453 0.210968 0.965877 0.585938 0.59082C0.959628 0.21713 1.46582 0.00740602 1.99414 0.00585938V0.00488281L1.99707 0.00585938L2 0.00488281V0.00585938C2.38135 0.0046731 2.75592 0.0974246 3.09082 0.276367L3.2334 0.358398L3.24121 0.363281L4.1709 0.962891L4.17188 0.961914C4.22005 0.992617 4.27588 1.00879 4.33301 1.00879C4.39014 1.00879 4.44597 0.99262 4.49414 0.961914L5.42676 0.363281L5.42871 0.362305C5.79854 0.125978 6.2281 1.45528e-06 6.66699 0C7.10589 0 7.53544 0.125977 7.90527 0.362305L7.9082 0.363281L8.83789 0.962891L8.83887 0.961914C8.88704 0.992619 8.94287 1.00879 9 1.00879L9.08398 0.99707C9.11113 0.989154 9.13705 0.977264 9.16113 0.961914V0.962891L10.0918 0.363281L10.0947 0.362305C10.4646 0.125977 10.8941 0 11.333 0C11.7719 1.45528e-06 12.2015 0.125978 12.5713 0.362305L12.5732 0.363281L13.5059 0.961914L13.583 0.99707C13.6102 1.00499 13.6384 1.00879 13.667 1.00879C13.7241 1.00879 13.78 0.992616 13.8281 0.961914V0.962891L14.7588 0.363281L14.7666 0.358398L14.9092 0.276367C15.2441 0.0974246 15.6187 0.0046731 16 0.00585938V0.00488281L16.002 0.00585938C16.0031 0.00586405 16.0047 0.00487632 16.0059 0.00488281L16.0049 0.00585938C16.5336 0.00714909 17.0401 0.216899 17.4141 0.59082C17.789 0.965879 18 1.47453 18 2.00488V20.0049Z" fill="currentColor"/>
</svg>
