<svg width="23" height="22" viewBox="0 0 23 22" fill="none" xmlns="http://www.w3.org/2000/svg">
<path d="M4.9502 19.9502C4.9502 18.8456 5.84563 17.9502 6.9502 17.9502C8.05468 17.9503 8.9502 18.8457 8.9502 19.9502C8.95009 21.0546 8.05461 21.9501 6.9502 21.9502C5.84569 21.9502 4.9503 21.0547 4.9502 19.9502ZM15.9502 19.9502C15.9502 18.8456 16.8456 17.9502 17.9502 17.9502C19.0547 17.9503 19.9502 18.8457 19.9502 19.9502C19.9501 21.0546 19.0546 21.9501 17.9502 21.9502C16.8457 21.9502 15.9503 21.0547 15.9502 19.9502ZM3 0L3.08789 0.00390625C3.52146 0.0419043 3.88497 0.358809 3.97754 0.791016L4.87891 5H21.04C21.3433 5.00001 21.6305 5.13746 21.8203 5.37402C22.0101 5.61057 22.0823 5.92075 22.0166 6.2168L20.3662 13.6465L20.3652 13.6455C20.2183 14.312 19.8499 14.9089 19.3184 15.3369C18.7865 15.7651 18.1242 15.9989 17.4414 16H7.66016V15.999C6.97023 16.0093 6.29765 15.7825 5.75586 15.3545C5.20835 14.922 4.82902 14.3121 4.68262 13.6299L3.09863 6.2373C3.09354 6.21637 3.08872 6.19526 3.08496 6.17383L2.19141 2H1C0.447715 2 0 1.55228 0 1C0 0.447715 0.447715 0 1 0H3ZM6.6377 13.21C6.68648 13.4374 6.81357 13.641 6.99609 13.7852C7.17855 13.9292 7.40529 14.0052 7.6377 14H17.4385C17.6658 13.9996 17.8863 13.9218 18.0635 13.7793C18.2407 13.6366 18.3642 13.4371 18.4131 13.2148L18.4141 13.2129L19.793 7H5.30762L6.6377 13.21Z" fill="currentColor"/>
</svg>
