<svg width="20" height="22" viewBox="0 0 20 22" fill="none" xmlns="http://www.w3.org/2000/svg">
<path d="M16 6H4V19C4 19.2652 4.10543 19.5195 4.29297 19.707C4.48051 19.8946 4.73478 20 5 20H15C15.2652 20 15.5195 19.8946 15.707 19.707C15.8946 19.5195 16 19.2652 16 19V6ZM13 3C13 2.73478 12.8946 2.48051 12.707 2.29297C12.5195 2.10543 12.2652 2 12 2H8C7.73478 2 7.4805 2.10543 7.29297 2.29297C7.10543 2.48051 7 2.73478 7 3V4H13V3ZM15 4H19C19.5523 4 20 4.44772 20 5C20 5.55228 19.5523 6 19 6H18V19C18 19.7957 17.6837 20.5585 17.1211 21.1211C16.5585 21.6837 15.7957 22 15 22H5C4.20435 22 3.44151 21.6837 2.87891 21.1211C2.3163 20.5585 2 19.7957 2 19V6H1C0.447715 6 0 5.55228 0 5C0 4.44772 0.447715 4 1 4H5V3C5 2.20435 5.3163 1.44151 5.87891 0.878906C6.44152 0.316297 7.20435 0 8 0H12C12.7956 0 13.5585 0.316297 14.1211 0.878906C14.6837 1.44151 15 2.20435 15 3V4Z" fill="currentColor"/>
</svg>
