<svg width="22" height="22" viewBox="0 0 22 22" fill="none" xmlns="http://www.w3.org/2000/svg">
<path d="M9 19C9 18.4477 8.55228 18 8 18C7.44772 18 7 18.4477 7 19C7 19.5523 7.44772 20 8 20C8.55228 20 9 19.5523 9 19ZM18 19C18 18.4477 17.5523 18 17 18C16.4477 18 16 18.4477 16 19C16 19.5523 16.4477 20 17 20C17.5523 20 18 19.5523 18 19ZM17 6V12H19V6H17ZM12 12H15V6H12V12ZM20 19C20 20.6569 18.6569 22 17 22C15.3431 22 14 20.6569 14 19C14 18.649 14.0631 18.3131 14.1738 18H10.8262C10.9369 18.3131 11 18.649 11 19C11 20.6569 9.65685 22 8 22C6.34315 22 5 20.6569 5 19C5 18.649 5.06306 18.3131 5.17383 18H5C4.20435 18 3.44151 17.6837 2.87891 17.1211C2.3163 16.5585 2 15.7956 2 15V6C2 5.73478 1.89457 5.4805 1.70703 5.29297C1.5195 5.10543 1.26522 5 1 5C0.447715 5 0 4.55228 0 4C0 3.44772 0.447715 3 1 3C1.79565 3 2.55848 3.3163 3.12109 3.87891C3.6837 4.44152 4 5.20435 4 6V15L4.00488 15.0986C4.02757 15.3276 4.12883 15.5429 4.29297 15.707C4.48051 15.8946 4.73478 16 5 16H21C21.5523 16 22 16.4477 22 17C22 17.5523 21.5523 18 21 18H19.8262C19.9369 18.3131 20 18.649 20 19ZM8 12H10V6H8V12ZM15 3C15 2.73478 14.8946 2.48051 14.707 2.29297C14.5195 2.10543 14.2652 2 14 2H13C12.7348 2 12.4805 2.10543 12.293 2.29297C12.1054 2.48051 12 2.73478 12 3V4H15V3ZM17 4H19C20.1046 4 21 4.89543 21 6V12C21 13.1046 20.1046 14 19 14H8C6.89543 14 6 13.1046 6 12V6C6 4.89543 6.89543 4 8 4H10V3C10 2.20435 10.3163 1.44151 10.8789 0.878906C11.4415 0.316297 12.2044 0 13 0H14C14.7956 0 15.5585 0.316297 16.1211 0.878906C16.6837 1.44151 17 2.20435 17 3V4Z" fill="currentColor"/>
</svg>
