<svg width="22" height="22" viewBox="0 0 22 22" fill="none" xmlns="http://www.w3.org/2000/svg">
<path d="M20 11C20 6.02944 15.9706 2 11 2C6.02944 2 2 6.02944 2 11C2 15.9706 6.02944 20 11 20C15.9706 20 20 15.9706 20 11ZM10 15V9.41406L7.70703 11.707C7.31651 12.0976 6.68349 12.0976 6.29297 11.707C5.90244 11.3165 5.90244 10.6835 6.29297 10.293L10.293 6.29297L10.3691 6.22461C10.7619 5.90426 11.3409 5.92685 11.707 6.29297L15.707 10.293C16.0976 10.6835 16.0976 11.3165 15.707 11.707C15.3165 12.0976 14.6835 12.0976 14.293 11.707L12 9.41406V15C12 15.5523 11.5523 16 11 16C10.4477 16 10 15.5523 10 15ZM22 11C22 17.0751 17.0751 22 11 22C4.92487 22 0 17.0751 0 11C0 4.92487 4.92487 0 11 0C17.0751 0 22 4.92487 22 11Z" fill="currentColor"/>
</svg>
