<svg width="22" height="21" viewBox="0 0 22 21" fill="none" xmlns="http://www.w3.org/2000/svg">
<path d="M17 20V18H15C14.4477 18 14 17.5523 14 17C14 16.4477 14.4477 16 15 16H17V14C17 13.4477 17.4477 13 18 13C18.5523 13 19 13.4477 19 14V16H21C21.5523 16 22 16.4477 22 17C22 17.5523 21.5523 18 21 18H19V20C19 20.5523 18.5523 21 18 21C17.4477 21 17 20.5523 17 20ZM13 6C13 3.79086 11.2091 2 9 2C6.79086 2 5 3.79086 5 6C5 8.20914 6.79086 10 9 10C11.2091 10 13 8.20914 13 6ZM15 6C15 7.945 14.0733 9.6722 12.6387 10.7686C13.4772 11.1392 14.2585 11.6374 14.9531 12.25C15.3672 12.6153 15.4071 13.2469 15.042 13.6611C14.6767 14.0752 14.045 14.1151 13.6309 13.75C12.6205 12.8588 11.3742 12.2777 10.042 12.0771C8.70986 11.8766 7.34798 12.0649 6.12012 12.6191C4.89221 13.1734 3.84995 14.0704 3.11914 15.2021C2.38833 16.3339 1.99993 17.6528 2 19C2 19.5523 1.55227 20 1 20C0.44774 20 3.02951e-05 19.5523 1.06933e-08 19C-8.44233e-05 17.2679 0.499851 15.5723 1.43945 14.1172C2.37899 12.6623 3.71838 11.5095 5.29688 10.7969C5.31788 10.7874 5.33929 10.7779 5.36035 10.7686C3.9261 9.67218 3 7.94472 3 6C3 2.68629 5.68629 0 9 0C12.3137 0 15 2.68629 15 6Z" fill="currentColor"/>
</svg>
