<svg width="20" height="22" viewBox="0 0 20 22" fill="none" xmlns="http://www.w3.org/2000/svg">
<path d="M4 21V11H3C1.34772 11 0 9.65228 0 8V1C0 0.447715 0.447715 0 1 0C1.55228 0 2 0.447715 2 1V8C2 8.54772 2.45228 9 3 9H4V1C4 0.447715 4.44772 0 5 0C5.55228 0 6 0.447715 6 1V9H7C7.26522 9 7.51949 8.89457 7.70703 8.70703C7.89457 8.51949 8 8.26522 8 8V1C8 0.447715 8.44771 0 9 0C9.55229 0 10 0.447715 10 1V8C10 8.79565 9.6837 9.55849 9.12109 10.1211C8.55849 10.6837 7.79565 11 7 11H6V21C6 21.5523 5.55228 22 5 22C4.44772 22 4 21.5523 4 21ZM18 21V15H16C14.3477 15 13 13.6523 13 12V6C13 4.4087 13.6326 2.88303 14.7578 1.75781C15.883 0.632594 17.4087 0 19 0C19.2652 0 19.5195 0.105432 19.707 0.292969C19.8946 0.480505 20 0.734784 20 1V21C20 21.5523 19.5523 22 19 22C18.4477 22 18 21.5523 18 21ZM15 12C15 12.5477 15.4523 13 16 13H18V2.12793C17.3141 2.3051 16.6814 2.66239 16.1719 3.17188C15.4217 3.92202 15 4.93913 15 6V12Z" fill="currentColor"/>
</svg>
