<svg width="21" height="20" viewBox="0 0 21 20" fill="none" xmlns="http://www.w3.org/2000/svg">
<path d="M16 11C15.7348 11 15.4805 11.1054 15.293 11.293C15.1054 11.4805 15 11.7348 15 12L15.0049 12.0986C15.0276 12.3276 15.1288 12.5429 15.293 12.707C15.4805 12.8946 15.7348 13 16 13H19V11H16ZM3 6C2.65558 6 2.31859 5.93703 2 5.82422V17C2 17.2652 2.10543 17.5195 2.29297 17.707C2.48051 17.8946 2.73478 18 3 18H18V15H16C15.2043 15 14.4415 14.6837 13.8789 14.1211C13.3867 13.6289 13.0829 12.9835 13.0146 12.2969L13 12C13 11.2043 13.3163 10.4415 13.8789 9.87891C14.4415 9.3163 15.2043 9 16 9H18V6H3ZM3 2C2.73478 2 2.4805 2.10543 2.29297 2.29297C2.10543 2.4805 2 2.73478 2 3L2.00488 3.09863C2.02757 3.32763 2.12883 3.54289 2.29297 3.70703C2.4805 3.89457 2.73478 4 3 4H16V2H3ZM18 4C18.5304 4 19.039 4.21087 19.4141 4.58594C19.7891 4.96101 20 5.46957 20 6V9.26953C20.1498 9.35611 20.2896 9.46145 20.4141 9.58594C20.7891 9.96101 21 10.4696 21 11V13C21 13.5304 20.7891 14.039 20.4141 14.4141C20.2897 14.5384 20.1497 14.643 20 14.7295V18C20 18.5304 19.7891 19.039 19.4141 19.4141C19.039 19.7891 18.5304 20 18 20H3C2.20435 20 1.44151 19.6837 0.878906 19.1211C0.316297 18.5585 0 17.7957 0 17V3C0 2.20435 0.316297 1.44152 0.878906 0.878906C1.44152 0.316297 2.20435 0 3 0H16C16.5304 0 17.039 0.210864 17.4141 0.585938C17.7891 0.961012 18 1.46957 18 2V4Z" fill="currentColor"/>
</svg>
